Coordinates
version=1
nRows=7
nColumns=40
inDegrees=yes

Units are S.I. units (second, meters, Newtons, ...)
Angles are in degrees.

endheader
time	pelvis_tilt	pelvis_list	pelvis_rotation	pelvis_tx	pelvis_ty	pelvis_tz	hip_flexion_r	hip_adduction_r	hip_rotation_r	knee_angle_r	knee_angle_r_beta	ankle_angle_r	subtalar_angle_r	mtp_angle_r	hip_flexion_l	hip_adduction_l	hip_rotation_l	knee_angle_l	knee_angle_l_beta	ankle_angle_l	subtalar_angle_l	mtp_angle_l	lumbar_extension	lumbar_bending	lumbar_rotation	arm_flex_r	arm_add_r	arm_rot_r	elbow_flex_r	pro_sup_r	wrist_flex_r	wrist_dev_r	arm_flex_l	arm_add_l	arm_rot_l	elbow_flex_l	pro_sup_l	wrist_flex_l	wrist_dev_l
     33.47500000	     -8.11788115	     -5.80609966	      2.29358487	      1.06736604	      0.91316679	      0.44420764	      3.91491930	     -1.25198705	    -12.79816445	     27.95442959	     27.95442959	     15.73645516	     -0.66807732	     -8.94797218	     32.76695210	     -6.34818120	      2.50603832	     30.14468816	     30.14468816	      8.26657885	    -15.53452977	      9.12089005	    -10.30943882	      4.63895204	      5.37041632	     46.92849764	    -12.44058259	      1.77482449	    127.36405963	     43.85745540	      0.00000000	      0.00000000	    -14.06453355	     -7.17801948	      6.44511722	     27.48876970	     44.89986110	      0.00000000	      0.00000000
     33.48685714	     -8.05131203	     -5.74776954	      2.22045368	      1.06760542	      0.91443828	      0.44167406	      4.98577428	     -1.77083276	    -12.08632679	     30.63962115	     30.63962115	     12.18526832	     -3.44780789	    -15.84128718	     32.09544289	     -6.19974438	      2.34668773	     30.27614864	     30.27614864	      9.25520059	    -15.42898503	      9.97266513	    -10.38627070	      4.59963820	      5.57326139	     45.18839757	    -12.78288317	      1.30760604	    127.72440126	     43.90373533	      0.00000000	      0.00000000	    -13.48627142	     -7.17703149	      5.21229813	     29.23610655	     45.16744246	      0.00000000	      0.00000000
     33.49871429	     -7.89932873	     -5.61581216	      2.15036685	      1.06773264	      0.91580429	      0.43921120	      6.37108053	     -2.51836262	    -11.65293276	     34.28028668	     34.28028668	     10.68016448	     -4.72571485	    -16.22852774	     31.18019121	     -6.00228969	      2.08037763	     30.11309082	     30.11309082	      9.77935101	    -15.36211033	      9.77132223	    -10.49508705	      4.52783064	      5.39905275	     43.61903971	    -12.88206392	      1.49590124	    127.05896999	     43.91353125	      0.00000000	      0.00000000	    -12.49603193	     -7.33109876	      5.05144424	     29.81110810	     45.21149496	      0.00000000	      0.00000000
     33.51057143	     -7.85696331	     -5.46429707	      2.09221639	      1.06745439	      0.91685351	      0.43684614	      8.06381564	     -3.22031465	    -11.00394764	     38.08551872	     38.08551872	      8.78687778	     -6.30968364	    -16.57587428	     30.44909593	     -5.77589693	      1.81839199	     30.00080246	     30.00080246	     10.20062735	    -15.28920016	      9.57107121	    -10.54203837	      4.45693026	      5.32287572	     41.86782986	    -13.08001753	      1.54732208	    126.16787919	     43.93446997	      0.00000000	      0.00000000	    -11.53450182	     -7.47981535	      4.81285330	     30.66183092	     45.26479738	      0.00000000	      0.00000000
     33.52242857	     -7.84165318	     -5.36374607	      2.01242793	      1.06702698	      0.91771057	      0.43472229	      9.89084344	     -3.78791268	    -10.28127993	     41.89528372	     41.89528372	      6.55598984	     -8.15614511	    -16.73339813	     29.75130367	     -5.62204724	      1.55672012	     29.86650158	     29.86650158	     10.63493968	    -15.22923716	      9.35702532	    -10.53342470	      4.41600117	      5.25551088	     40.01003693	    -13.36710455	      1.42887922	    124.97676415	     43.97073793	      0.00000000	      0.00000000	    -10.58704096	     -7.69495879	      4.48392621	     31.78740827	     45.32954424	      0.00000000	      0.00000000
     33.53428571	     -7.77367867	     -5.41924446	      1.94781029	      1.06645880	      0.91850743	      0.43287641	     11.67710554	     -3.98288912	     -9.39821897	     45.46439560	     45.46439560	      3.67312806	    -10.87836548	    -17.38800919	     29.04854966	     -5.64204169	      1.39658784	     29.77409540	     29.77409540	     11.02031508	    -15.09675232	      8.90951273	    -10.57622763	      4.47055505	      4.99360836	     38.20945163	    -13.23878503	      0.50425007	    122.92601205	     44.08476847	      0.00000000	      0.00000000	    -10.54058729	     -8.01618764	      3.06739743	     35.37127887	     45.54595489	      0.00000000	      0.00000000
     33.54614286	     -7.66140067	     -5.24860381	      1.87877349	      1.06570745	      0.91916413	      0.43081077	     13.52574209	     -4.63305451	     -8.92201973	     49.16769398	     49.16769398	      1.33380671	    -12.23975728	    -16.81898103	     28.30608920	     -5.40887891	      1.15438276	     29.72907551	     29.72907551	     11.45904132	    -15.07134288	      8.70687309	    -10.70911679	      4.41941610	      4.85472559	     36.29715062	    -13.46960451	      0.62222519	    121.42504040	     44.12164709	      0.00000000	      0.00000000	     -9.27200005	     -8.23901351	      2.80835645	     36.26127476	     45.60112913	      0.00000000	      0.00000000
